<svg xmlns="http://www.w3.org/2000/svg" fill="none" viewBox="0 0 64 64">
    <path fill="#000" fillRule="evenodd" d="m13.98 27 7.517-10.35A4 4 0 0 1 24.734 15h20.06a4 4 0 0 1 3.709 2.5l3.845 9.5H54a8 8 0 0 1 8 8v5a4 4 0 0 1-4 4h-5.29a7.003 7.003 0 0 1-13.42 0H27.71a7.003 7.003 0 0 1-13.42 0H6a4 4 0 0 1-4-4v-5a8 8 0 0 1 8-8h3.98Zm.31 13a7.003 7.003 0 0 1 13.42 0h11.58a7.003 7.003 0 0 1 13.42 0H58v-5a4 4 0 0 0-4-4H10a4 4 0 0 0-4 4v5h8.29Zm33.743-13-3.238-8H24.734l-5.81 8h29.109ZM18 42a3 3 0 1 1 6 0 3 3 0 0 1-6 0Zm25 0a3 3 0 1 1 6 0 3 3 0 0 1-6 0Z" clip-rule="evenodd" />
</svg>